<?xml version="1.0" standalone="no"?>
<!DOCTYPE svg PUBLIC "-//W3C//DTD SVG 20010904//EN"
 "http://www.w3.org/TR/2001/REC-SVG-20010904/DTD/svg10.dtd">
<svg version="1.0" xmlns="http://www.w3.org/2000/svg"
 width="512.000000pt" height="512.000000pt" viewBox="0 0 512.000000 512.000000"
 preserveAspectRatio="xMidYMid meet">

<g transform="translate(0.000000,512.000000) scale(0.100000,-0.100000)"
fill="#FF9800" stroke="none">
<path d="M501 5105 c-178 -39 -348 -172 -429 -336 -77 -155 -72 5 -72 -2209 0
-1708 2 -1995 15 -2054 39 -183 170 -352 336 -434 150 -74 105 -72 1217 -72
l992 0 0 880 0 880 -320 0 -320 0 0 400 0 400 320 0 320 0 0 358 c0 443 12
524 101 705 95 193 244 341 437 437 180 88 261 100 705 100 l357 0 0 -399 0
-400 -267 -3 c-234 -3 -272 -5 -300 -21 -68 -37 -68 -33 -71 -424 l-3 -353
400 -2 399 -3 -158 -395 -158 -395 -241 -3 -241 -2 0 -880 0 -880 513 0 c579
0 594 2 736 72 166 82 297 251 336 434 22 104 22 4004 0 4108 -50 239 -252
441 -491 491 -101 21 -4014 21 -4113 0z"/>
</g>
</svg>
