<?xml version="1.0" encoding="utf-8"?>
<!-- Generator: Adobe Illustrator 28.0.0, SVG Export Plug-In . SVG Version: 6.00 Build 0)  -->
<svg version="1.1" id="Capa_1" xmlns="http://www.w3.org/2000/svg" xmlns:xlink="http://www.w3.org/1999/xlink" x="0px" y="0px"
	 viewBox="0 0 1621.6 1628.1" style="enable-background:new 0 0 1621.6 1628.1;" xml:space="preserve">
<style type="text/css">
	.st0{fill:#FF9800;}
	.st1{fill:#640000;}
</style>
<rect x="-26.2" y="-19.6" class="st0" width="1673.9" height="1667.3"/>
<g>
	<path class="st1" d="M763.4,1321.1l0.5-2.6c0.3-1,0.5-1.8,1-2.9c-11.4-9.6-24.7-6.5-31.2-3.1c0.8,2.1,1.3,4.4,1.6,6.5
		c2.3,15.6-4.2,29.6-17.4,38.7c6.8,11.7,19.5,17.1,29.9,16.6h0.3c14.8-1,22.1-7.3,26.8-14.5C769.3,1354.9,759.5,1342.7,763.4,1321.1
		z"/>
	<path class="st1" d="M609.3,1276.4c10.4-1.8,17.7-6,22.3-12.2c4.7-6.2,7.8-14.3,7.3-23.6c-0.3-5.7-2.1-11.7-5.5-17.9
		c0,0,6.2,6.2,9.4,13.5c1,2.3,3.1,7.8,3.4,14.5c1,0.8,2.1,1.3,3.1,2.1h0.3c6.8,3.6,14.5,4.9,22.6,3.4c7.3-1.6,13.8-5.5,18.2-10.9
		c0,0,0-0.3-0.3-0.3h-0.3c-4.2-5.7-6.2-12.7-6.8-20.8v-0.5c-0.3-3.6-0.8-11.2,3.9-21c-2.1,0-4.2,0.3-6,0.3
		c-16.6,1.3-35.1,5.5-52.7,11.2l-0.3,0.5l-0.5-0.3c-21.8,7-42.6,16.1-57.9,24.7c-0.3,3.6,0,7,0.8,10.6c3.4,15.3,16.4,26.2,31.9,27.5
		l2.1,0.3c1.6-0.3,3.1-0.3,4.4-0.5L609.3,1276.4z"/>
	<path class="st1" d="M865.5,1267.1c-11.9,1.3-20.8,5.7-25.7,12.5c-4.7,6.5-6.2,14.3-6.5,19.5c0,4.4,0.8,15.1,4.9,24.4
		c-6-6.8-9.6-18.4-9.6-18.4c-1.3-6-5.7-17.4,5.7-32.7c6-7.8,12.5-12.5,23.4-14.5c-4.2-14.8-17.4-24.9-32.2-25.7
		c3.1,16.6-2.6,34.5-16.9,44.9c-6.8,4.9-14.5,7-22.3,7.5c-9.4,0.5-18.7-2.3-26.8-8.3c0,0-11.7-8.3-12.7-23.6
		c-4.4,4.2-9.9,6.8-16.9,8.3c-4.2,0.3-10.6,0.8-14.8,0c-6.8-1.6-12.5-4.2-17.1-7.5c-5.7,7-14,11.7-23.4,13.8
		c-2.1,0.5-4.4,0.8-6.5,0.8c-8.1,0.5-15.8-1.3-22.9-5.2c-1,2.9-2.3,5.5-4.4,8.3c-6.8,9.1-17.4,14.8-31.9,16.6
		c-0.3,3.6-0.3,7.8,0,10.1c1,6.8,3.9,14.8,13,21.6c4.4,3.4,10.9,5.7,17.7,6c0.5,0,1,0,1.6,0l0.8-0.8c0.3,0,0.3,0,0.5,0
		c1,0,2.1,0,3.1-0.3c1-0.3,2.1-0.3,3.1-0.5c3.4-0.8,6.8-2.3,9.6-3.9c0,0,0,0,0,0.3c-3.1,1.8-6.2,3.4-9.6,3.9c3.6-0.8,7-2.1,9.9-3.9
		c0,0,0,0,0-0.3c1.3-0.8,2.1-1.6,3.1-2.3l0,0c2.6-2.1,4.7-4.4,6.2-7c5.5-8.3,5.2-17.1,4.4-22.3l0.3-0.3c-0.5-2.3-1-3.6-1-3.6
		s-1.6-4.9-4.2-8.6c1,0.8,4.7,4.4,7.5,9.4l0,0c0.5,0.8,1,1.8,1.6,2.9c0.3-2.1,0-3.9,0-4.7l0.3-0.3c0,0,0.3,2.1,0,5.5
		c3.4,7.5,5.2,17.1-1,27.8c-3.4,5.2-7.8,9.4-13.2,12.2c1.3,8.1,5.2,18.7,17.9,24.7c8.3,3.9,20.8,3.1,30.4-2.1l1.3-0.8
		c14-9.1,16.1-21.6,15.6-28.3c-0.5-12.5-7.5-25.2-22.1-31.9v-0.3c10.1,1,18.2,6.5,23.4,13.8c8.3-4.7,27-7.8,42.1,2.9
		c5.7-6.8,14.8-11.9,28.6-12.7c4.4,0,13.5,0.5,20.3,4.9c-3.4-1.3-11.2-1.3-11.2-1.3c-27.8,1-33.2,20.5-34.3,24.4
		c-2.9,16.4,3.6,26.5,7.5,30.9l1.3,1c8.6,7.3,19.7,10.1,30.9,7.8c13.2-3.1,23.9-13.5,26.8-27l1-4.7l3.9,2.6c8.1,5.2,17.7,6.8,27,4.7
		c19-4.4,30.9-23.4,26.8-42.3C895.8,1278.8,881.6,1267.4,865.5,1267.1z"/>
	<path class="st1" d="M756.4,1266.1c3.4,2.9,7.3,4.9,11.2,6.2c0,0,18.2,8.3,35.1-3.4c9.1-6.2,16.4-21.8,11.7-39
		c-0.5-0.3-2.1-1-2.1-1c-21.8-11.2-61.6-25.7-106.8-27h-1.8c-1.6,0-3.1,0-4.7,0c-6.2,10.1-5.7,17.4-5.5,20.8v0.8
		c1,17.9,13.5,27,24.9,29.6c11.4,2.6,27.8,0,36.6-15.8l0.8-1l0,0c-2.1,6-4.2,10.6-7,14l-0.3,0.3c-0.5,0.5-0.8,1-1.3,1.6
		c0.3,1.3,0.5,2.3,1,3.4l0,0C750.1,1260.6,753.2,1262.9,756.4,1266.1z"/>
	<path class="st1" d="M648.3,1324c-0.8,0.3-1.8,0.3-2.6,0.5C646.5,1324.5,647.3,1324.2,648.3,1324z"/>
	<path class="st1" d="M1077.7,1077c-4.7-13.2-17.7-32.5-37.7-37.7c-14.8-11.2-31.7-9.6-40.5-6.2c-17.1-0.3-27.5,10.4-32.2,18.7
		c-1.8,1.3-3.9,3.4-6,6c-3.1,4.7-6.2,13-2.6,25.5c0.3,16.1,9.1,25.2,17.9,28.6c10.1,4.7,21-0.3,23.1-1.3l10.1-5.2l-5.7-9.9
		c0,0-3.1-5.5-3.9-11.4c0-1,0-2.6,0.3-4.4c1.3-1.3,2.9-2.6,4.4-3.1l0.3-0.3c3.4-1.3,9.1,0,13,1.3c1.3,4.4,3.9,10.4,8.3,14.8
		c-2.6,5.7-4.7,13-5.2,20.8c-7.8,2.6-11.9,9.4-14.3,14.3c-2.3,0.5-4.2,1.6-5.7,2.3c-3.4,0.8-6,1-18.2-0.3h-0.8l-1.6-0.3
		c-8.3-0.8-19.2-6-22.9-8.1l-0.5-0.3c-0.8-0.5-71.9-41.3-114.8-65.7l-0.8-0.5c-14.8-7.8-49.6-25.7-94.8-23.9
		c-33.2,0.8-70.4,15.3-94.5,36.9l-8.1,7.3c-14.8,2.9-26,5.7-26.8,5.7l-7.5,1.8l-2.3,28.6c-13.5,5.2-23.6,10.9-24.4,11.2l-4.7,2.6
		c-0.3,0-0.3,0.3-0.5,0.3l0,0v-0.3c0,0-0.3,0-0.3,0.3l-3.4,1.8l0,0l-0.3,6.2c0,2.1-0.3,8.6,0.3,15.8l11.7-4.7l2.9-1.3l6.5-2.3l0,0
		l7-2.1c36.6-11.4,88.1-16.1,130.4-1.8c34.8,11.7,51.9,26.8,67.3,39.7c2.9,2.6,5.7,4.9,8.6,7.3l0,0l0,0
		c-17.1-11.2-47.8-29.4-79.5-38.4c-31.7-9.1-76.1-9.6-118.2,3.4c0,0-6.2,2.1-15.1,5.5c0,0,0,0,0-0.3c-0.5,0.3-0.8,0.3-1,0.5
		c-1.3,0.5-2.6,1-3.9,1.6c-10.1,3.9-22.3,9.1-30.4,13.8l0.3,5.2c0,1,1.6,23.4,6,43.4l0.8,3.1c0,0,0-0.3,0.3-0.3
		c0.3,1.8,0.5,2.9,0.5,2.9c0.8-0.3,1.6-0.5,2.3-1l0,0c9.4-4.4,45.5-20.8,71.2-26.5c14.3-3.1,25.7-5.5,37.1-7c0.3,0,0.3,0,0.5,0
		c1.6-0.3,3.1-0.3,4.4-0.3c0,0-0.3,0-0.3-0.3h0.3c0,0,0.3,0,0.3,0.3c1.6,0,3.4-0.3,4.9-0.3s3.1,0,4.7,0c-0.3-0.3-0.3-0.3-0.5-0.5
		l0,0l0.3,0.3c1.6,0,2.9,0,4.2,0l0,0c1.8,0,3.4,0,4.9,0c0,0,0.3,0,0.3-0.3c0.3,0,0.5,0,1,0c1,0.3,2.6,0.3,3.9,0.5l0,0
		c3.1,0,6.2,0.3,9.1,0.5c1,0,1.8,0.3,2.9,0.3c33.5,3.1,64.4,13,82.3,19.7c1.6,0.5,3.1,1.3,4.7,1.8c2.6,1,6,2.3,6.5,2.6
		c3.1,1.3,4.9,2.1,4.9,2.1l6.5-11.7c25.7,10.4,94.8,36.6,132,35.8c5.2,0.8,12.7,1.6,21.6,1.3c12.2-0.3,26.5-2.1,40-7.3
		c37.1-7.5,58.4-43.4,63.4-59c12.2-14.8,14.5-42.1,9.4-60.3C1090.4,1103.5,1088.1,1087.6,1077.7,1077z M993.8,1192.3
		c-3.1,21.3-11.4,29.6-11.4,29.6s4.2-17.1-2.1-47.8c-2.6-12.7-9.4-25.5-9.4-25.5l20.3,3.4C991.4,1152,997.9,1164,993.8,1192.3z
		 M1055.1,1123.7c-7.5-3.4-13.2-4.2-13.2-4.2s0-6,1.3-11.2c7.3,0.8,15.6,5.2,19.7,9.9c4.4,4.9,8.8,11.7,11.4,18.7
		C1069.9,1133.1,1063.6,1127.6,1055.1,1123.7z"/>
	<g>
		<path class="st1" d="M582.6,290.2c10.1,16.6,21.6,27,34.8,31.2c1.6,2.6,3.1,4.9,4.9,7.3c-7,0-14.5,1.3-22.3,3.4
			c13.5,11.4,27.5,19.2,43.9,20c1.8,1.6,3.6,3.1,5.7,4.7c-5.5,0.5-11.2,1.3-17.1,2.6c16.1,14.5,34.3,21,49.1,18.2
			c3.1,1.6,6.2,3.1,9.6,4.7c-3.1,1.6-6.5,3.4-9.6,5.2c14,5.2,27,7.3,37.9,6c21.8,7.5,41.3,12.7,41.3,12.7s42.3,6,50.9,24.4
			c13.2-20.3,28.6-23.1,33.8-24.4c20.8-4.7,36.6-8.3,51.4-13c9.9,0.5,20.8-1.6,32.7-6.2c-2.3-1.6-4.7-3.1-6.8-4.4
			c3.6-1.8,7.3-3.6,10.9-6c17.7,0.8,32.2-8.1,48.1-19c-6.2-1.3-12.2-2.1-18.2-2.6c1.3-1.3,2.9-2.6,4.2-3.9
			c16.4-1.6,30.1-10.6,42.9-23.1c-7.3-2.1-14.5-2.9-21.6-2.3c1-1.8,2.3-3.6,3.4-5.5c15.3-4.4,28.1-15.3,34.5-31.2
			c-9.1,1-17.1,2.3-23.6,3.9c0.8-2.9,1.3-5.7,1.6-8.6c10.1-8.3,16.1-19.7,16.9-33.2c-5.2,2.9-10.9,5.2-16.6,7.8
			c-0.5-4.7-1.6-9.1-2.6-13.5c4.4-8.6,4.7-19,0.8-32.5c-4.2,2.9-7.8,5.5-11.2,8.3c-2.3-3.9-4.7-7.5-7.5-11.2
			c2.9-9.4-0.5-21.3-10.1-37.1c-5.7,4.4-9.6,9.4-12.5,14c-3.4-2.9-7-5.5-10.9-8.3c-1.3-11.7-10.9-22.9-29.9-34.8
			c-1.3,6.2-2.1,11.9-1.8,16.9c-3.6-1.6-7.5-3.4-11.4-4.7c-5.2-12.5-17.9-21.6-35.6-24.7c0.5,5.5,1.3,10.1,2.6,14.3
			c-4.9-1.3-10.1-2.3-15.3-3.1c-9.4-9.9-25.5-14.8-44.7-13c1.6,3.1,3.1,6,4.9,8.6c-5.5-0.3-10.9-0.5-16.4-0.3c-4.4,0-8.6,0.3-13,0.3
			c1.6-2.6,3.1-5.7,4.4-8.8c-19.5-0.5-34.3,3.9-43.6,13.2c-5.2,0.8-10.1,1.8-15.1,3.1c1.3-4.7,1.6-9.6,1-14.5
			c-19,7-29.9,14.5-34.5,24.9c-3.9,1.6-7.8,3.1-11.4,4.7c-0.3-4.4-0.8-9.4-1.6-15.1c-17.4,9.9-27.5,21-29.9,32.2
			c-4.4,2.9-8.6,6-12.5,9.1c-2.6-3.9-6-8.1-10.6-11.9c-9.1,13-12.7,24.7-11.2,33.8c-2.3,3.1-4.7,6.2-6.8,9.4
			c-3.6-2.6-8.1-5.2-12.7-7.5c-3.4,12.5-3.1,22.6,1.6,30.9c-1.6,4.7-2.9,9.4-3.6,14.3c-4.4-1.6-9.1-3.1-14.5-4.4
			c2.1,11.4,7,20,13.5,27.3c0.3,4.2,1,8.3,1.8,12.5C596.9,289.4,589.9,289.9,582.6,290.2z M805.5,211.5
			c61.3-0.3,102.6,35.1,102.9,60.3c0.3,20.8-23.4,34.5-66.2,46c-20.3,5.5-26.2,14.3-33.5,21.8c-2.9-4.7-12.2-13.5-31.7-17.9
			c-46.2-10.1-76.6-27.8-76.6-48.8C700.3,247.6,744.2,211.7,805.5,211.5z"/>
		<path class="st1" d="M1383.9,274.1l-309.4,180.8l-0.3-0.3l-13.8,7.8c-0.5,0.3-43.9,24.2-95.6,32.5c-79,12.7-138.7-37.1-139.2-37.7
			l-14.3-12.7l-13.8,13.2c-1.8,1.8-46,42.3-132.7,39c-34-1.3-69.1-16.4-88.6-26.2L238.4,275.1l-0.5,264.2l-114.3-64.7l1.8,611.4v1
			c3.1,58.2,6.8,106.8,21.6,156.9c16.9,57.7,47.3,108.8,93,156.4c31.2,31.7,66.8,56.1,106,72.5c33.8,14,71.2,22.6,111.4,25.2
			c10.1,0.8,20,1,29.9,1c61.3,0,119-11.9,166.5-21.6c22.1-4.4,42.3-8.6,58.2-10.4c61.8-7.3,99.2,31.4,99.2,31.4s20.3-17.1,35.8-21.6
			c46-18.2,98.2-10.6,149.6,2.3c8.8,2.3,17.9,4.4,27.3,6.8l1,0.3c35.6,6,75.3,11.7,116.1,11.7c22.9,0,46.2-1.8,69.6-5.7
			c66.2-12.7,124.4-45.7,177.9-101c45.2-46.8,73.2-91.4,88.6-140c13.8-44.4,16.1-88.6,19-139.7l0.5-9.6l1.3-626.2l-115.1,65.5
			L1383.9,274.1z M1343.1,464.5l-0.3,100l-97.7,58.7l-36.6-36.1l-20-21L1343.1,464.5z M939,539c10.4,0,21.3-0.8,32.7-2.6
			c41-6.5,76.6-21.3,95.3-30.1l149.4,147.3c-20.3,22.3-54.8,67.8-69.6,128.8c-12.7,2.9-24.2,10.1-25.7,11.2l-10.9,7.3l8.6,9.9
			c0.3,0.5,8.3,9.6,21.3,15.3c-0.5,8.1-0.8,16.4-0.3,24.7c1,33.2,7,67.8,14.8,100c-33-6.2-82.1-13.2-142.6-13.5c-0.8,0-1.8,0-2.6,0
			v-79.7h0.3c0-0.3,0-0.8-0.3-1c2.6-13.5,16.4-15.3,19.5-15.8l-1-11.4l0.8,11.4l-1.8-22.9c-4.7,0.3-11.2,1.8-17.4,5.2V806
			c3.6-15.1,34.5-17.4,34.8-17.4l-1-23.1c-1.3,0.3-18.4,1.3-33.8,8.8v-26.8l0,0l0,0v-1c0.8-1.3,1.6-2.6,2.6-4.4
			c11.4,1.8,32.5,2.3,50.9-14.5c16.6-14.5,19.7-36.4,19.7-37.4l1.6-11.4l-11.4-1.6c-1.3-0.3-28.6-3.4-50.9,16.9
			c-9.1,7.8-16.9,17.4-22.9,25.7c-6.5-10.1-16.9-21.6-34-30.9c-18.4-10.1-36.6-9.6-37.4-9.6l-13,0.5l2.1,12.7
			c0.3,1.6,6.2,38.4,36.1,48.6c13.8,4.7,25.2,3.1,31.9,1c0.8,2.3,1.3,4.2,1.6,5.2v27c-15.3-7.8-32.5-8.8-33.8-8.8l-1,23.1
			c0,0,9.1,0.5,18.4,3.6c9.6,3.4,15.1,8.1,16.4,13.8v16.9c-6.2-3.1-12.7-4.7-17.4-4.9l-1.8,22.9c0.8,0,16.9,1.6,19.2,16.4v80.3
			c-72.5,1.6-124.7,11.2-153.5,17.9V831c3.9,1,8.3,1.6,13.5,1.8c0.3,0,0.5,0,0.8,0c17.4,0,35.8-13.8,37.7-15.3l10.4-8.1l-9.4-9.4
			c-0.8-0.5-17.4-17.1-41.8-17.1c-3.9,0-7.8,0.5-11.2,1.6V511.8C857.7,524.7,894.5,539,939,539z M663.6,538.8
			c3.9,0.3,8.1,0.3,11.9,0.3c51.4,0,89.9-13.2,115.3-26.5v443.1h-0.5c-15.1-3.6-48.3-10.6-93.8-14.8c-0.8-13-3.6-46.8-3.6-46.8
			s2.9-27.5,3.6-31.7c6.5-19.5,10.1-34,11.7-36.9c3.9-2.1,15.6-9.4,22.1-17.4c6.2-7.8,8.8-10.1,10.9-22.9l4.9-42.6l-5.7-108.8
			l33.8-4.4l6.5-9.4l0.5-10.4l-44.9-31.9c0,0-19.2,6.5-23.6,7.8c-9.1-4.7-25.5-7.3-42.3,5.7c1.8,6.2,7.5,12.2,14.5,16.1
			c8.8,5.2,24.9,4.9,24.9,4.9s0.3,4.2,0.3,8.1c1.6,46.8,0.8,98.4,0.8,98.4l-46.2,3.1l-118.4-5.2l-41.8,39.5l-5.2,14.3
			c-4.7,13-4.2,27.5,1.6,40.3l20.5-22.3l8.3,39.5l-11.2,54l7.8,21.6c0,0,7.8,19.5,15.1,38.7c-36.6,3.9-62.6,9.4-76.4,12.7
			c10.1-39,12.7-60.3,13.2-65.5c1.8-10.4,15.3-95.1-11.7-156.6c-12.5-28.3-27.3-50.1-40.3-66c-4.2-7.3-8.3-13.5-11.9-18.2l9.1-9.9
			L554,506.3C575.8,517.7,619.5,537,663.6,538.8z M675.8,939.3c-2.1-0.3-4.2-0.3-6.2-0.3c-1.3-19.7-4.2-64.7-4.2-64.7l2.1-5.5
			l4.4-24.9l-0.8,27.3v9.1L675.8,939.3z M650.9,938c-6.5-0.3-13-0.3-19.5-0.3c-11.7,0-22.9,0.3-33.8,0.5
			c-5.2-16.9-8.8-32.5-13.8-48.6c-1.6-4.7,1.8-26.5,1.8-26.5l21.8-36.1l17.7,6.5l16.4-3.1l-1.6,47.8L650.9,938z M577.1,938.8
			c0,0.3,0,0.3,0,0.3c-6,0.3-11.7,0.8-17.1,1.3c-7.3-21-17.1-58.4-17.1-58.4l19.7-52.5l-2.3,58.4
			C560.3,887.9,573.2,921.4,577.1,938.8z M278.7,467.9L437.1,565l-54.8,55.8l-103.9-57.9L278.7,467.9z M363.9,1151.3L203.6,1057
			c-16.9-13-36.9-35.6-37.7-69.4c0-6.5-0.3-10.6-0.5-13l-0.5-194.8c27.3,15.1,217.1,121,262.1,154.3c-7.8,32.2-21.8,80.3-46.8,144.9
			C371.4,1102.9,366,1127.1,363.9,1151.3z M1169.6,1317c-55.6,47.8-110.1,76.4-223.9,81c-73.8,2.9-112,27.5-134.5,49.9
			c-18.4-18.7-56.9-47.5-137.4-49.9c-79-2.3-130.9-23.4-160.8-40.5c-31.4-18.2-45.5-36.1-46.2-37.1l-0.8-1.6l-1.3-1.3
			c-0.3-0.3-24.4-24.2-41.8-63.9c-22.9-51.9-23.9-105.7-3.4-159.5c14.3-37.7,25.2-69.6,33.5-96.6h714.8
			c16.4,51.9,34.3,91.2,37.1,97.4c1.6,4.4,14.3,39.2,16.6,82.6C1224.7,1237.7,1207.3,1284.5,1169.6,1317z M1457.4,779.6l-0.5,209.6
			c-1,38.2-24.2,59.2-39.2,69.1l-8.1,4.7c-3.1,1.6-5.2,2.3-5.2,2.3l1.3-0.3l-145.2,83.9c-5.5-40-16.6-68.6-17.1-70.1l-0.5-1.3
			c-0.3-1-31.7-67.8-49.6-144.7L1457.4,779.6z"/>
	</g>
	<path class="st1" d="M848.8,729.4l-10.4,4.2l3.6,10.6c0.3,1,9.9,26.5,40,35.3c5.2,1.6,10.6,2.1,15.8,2.1c19.5,0,36.9-8.1,38.2-8.6
		l11.9-5.7l-8.1-12.2c-5.5-8.6-14.5-22.9-39.7-30.7C879.5,718,851.9,728.1,848.8,729.4z"/>
	<path class="st1" d="M1096.1,729.2c-20,5.2-36.6,27.3-38.4,29.9l-7.8,10.6l11.4,6.2c0.8,0.5,15.3,8.3,34.3,8.3
		c6,0,12.2-0.5,18.4-2.6c23.9-7,35.3-31.2,35.8-32.2l4.9-10.4l-11.7-5.5C1134.5,729.4,1120,722.7,1096.1,729.2z"/>
	<path class="st1" d="M997.4,704.2l8.3-7.3c0.8-0.5,19-16.1,20.3-47c1-26-18.7-43.1-19.5-43.9l-8.6-7.3l-7.5,8.3
		c-0.3,0.5-0.8,0.8-1,1.3c-6,6.2-17.1,18.2-17.9,42.3c-0.8,24.7,17.7,44.7,18.4,45.5L997.4,704.2z"/>
	<path class="st1" d="M1097.9,713.6c1,0.3,5.7,1.6,12.5,1.6c7,0,16.6-1.3,26-6.8c15.8-9.4,19.5-27.5,20-29.6l2.1-11.4l-12.2-2.3
		c-6.2-1.3-18.2-3.6-34,5.2c-2.3,1.3-14,8.6-22.1,27.8l-4.9,12.2L1097.9,713.6z"/>
	<path class="st1" d="M864.2,708.4c5.5,2.6,11.2,3.4,16.1,3.4c10.1,0,18.4-3.6,19.7-3.9l10.4-4.9l-5.2-11.2
		c-2.9-6-7.8-16.9-24.2-24.7c-2.3-1-15.1-6.5-35.3-1.8l-12.7,2.9l4.7,12.2C838.4,682.1,845.5,700.1,864.2,708.4z"/>
	<path class="st1" d="M1049.9,668.6c3.6,0,15.3-0.8,25.2-9.9c10.1-8.8,10.1-22.6,10.1-24.2l-0.3-11.4l-12.2,0.3
		c-4.2,0.3-13.2,0.3-23.1,8.8c-8.3,7-10.9,20-11.4,22.6l-2.3,13l13,0.8C1048.8,668.6,1049.4,668.6,1049.9,668.6z"/>
	<path class="st1" d="M945.5,665l11.4,1.6l1.8-11.9c0.5-3.9,1.6-12.2-4.7-22.3c-5.2-8.3-16.4-12.7-18.7-13.5l-12.5-4.4l-2.9,12.7
		c-0.3,1.3-2.9,13.8,4.7,25.2C931.7,662.9,944.2,664.7,945.5,665z"/>
	<path class="st1" d="M904.2,815.7c-17.9,10.1-22.3,30.9-22.9,33.2l-2.3,11.4l11.4,2.1c2.3,0.5,6.8,1.3,12.5,1.3
		c7.3,0,16.9-1.3,27-6.5c17.9-9.4,24.9-30.4,25.7-32.7l3.6-11.4l-11.4-3.1C947,809.7,924.7,803.7,904.2,815.7z"/>
	<path class="st1" d="M1046.2,812.8l-8.8,6.5l6,9.1c1.3,2.1,13.2,19.2,30.9,24.2c4.2,1,8.3,1.6,12.5,1.6c13.8,0,26.8-4.7,28.8-5.7
		l11.7-4.4l-5.5-11.2c-0.5-1-10.6-21.8-32.7-27.5C1064.9,799,1047,812.3,1046.2,812.8z"/>
</g>
</svg>
