<?xml version="1.0" standalone="no"?>
<!DOCTYPE svg PUBLIC "-//W3C//DTD SVG 20010904//EN"
 "http://www.w3.org/TR/2001/REC-SVG-20010904/DTD/svg10.dtd">
<svg version="1.0" xmlns="http://www.w3.org/2000/svg"
 width="512.000000pt" height="512.000000pt" viewBox="0 0 512.000000 512.000000"
 preserveAspectRatio="xMidYMid meet">

<g transform="translate(0.000000,512.000000) scale(0.100000,-0.100000)"
fill="#FF9800" stroke="none">
<path d="M2337 5109 c-48 -4 -137 -15 -197 -25 l-110 -18 -69 -68 c-133 -130
-252 -300 -356 -508 -56 -112 -149 -329 -143 -335 9 -8 308 -77 408 -94 138
-24 344 -47 498 -56 l112 -7 0 561 0 561 -27 -1 c-16 -1 -67 -5 -116 -10z"/>
<path d="M2640 4560 l0 -561 98 6 c322 20 576 59 832 127 41 11 78 23 82 27
16 14 -149 373 -235 510 -87 140 -202 282 -293 364 -39 35 -45 37 -180 56 -76
10 -176 22 -221 25 l-83 6 0 -560z"/>
<path d="M1600 4932 c-168 -70 -304 -143 -453 -242 -127 -84 -326 -243 -334
-266 -6 -17 411 -203 484 -216 9 -2 28 31 57 102 84 209 190 403 313 573 34
48 63 90 63 92 0 9 -17 4 -130 -43z"/>
<path d="M3390 4974 c0 -3 13 -23 28 -43 121 -154 291 -460 357 -641 7 -19 18
-47 23 -62 l11 -26 88 33 c192 72 413 171 413 186 0 12 -129 121 -235 199
-175 129 -375 240 -575 320 -106 42 -110 43 -110 34z"/>
<path d="M600 4203 c-104 -125 -242 -332 -313 -471 -166 -323 -249 -623 -282
-1019 l-6 -73 519 0 518 0 12 208 c14 236 31 391 68 602 26 151 88 418 123
530 11 35 17 67 13 71 -4 3 -43 18 -87 34 -102 36 -331 136 -413 181 -34 19
-64 34 -67 34 -2 0 -40 -44 -85 -97z"/>
<path d="M4279 4226 c-80 -40 -204 -94 -275 -121 -71 -27 -132 -51 -136 -54
-4 -4 2 -36 13 -71 35 -112 97 -379 123 -530 37 -211 54 -366 68 -602 l12
-208 519 0 519 0 -7 68 c-15 167 -27 254 -46 351 -66 329 -191 631 -379 913
-83 126 -244 329 -258 327 -4 0 -73 -33 -153 -73z"/>
<path d="M1401 3978 c-15 -41 -89 -340 -110 -448 -46 -232 -74 -471 -87 -747
l-7 -143 642 0 641 0 0 600 0 600 -22 0 c-13 0 -88 5 -168 10 -269 19 -475 52
-734 116 -77 19 -141 34 -143 34 -2 0 -7 -10 -12 -22z"/>
<path d="M3550 3964 c-241 -62 -482 -97 -822 -120 l-88 -6 0 -599 0 -599 641
0 642 0 -7 143 c-18 374 -64 689 -152 1031 -44 170 -50 186 -66 185 -7 -1 -74
-17 -148 -35z"/>
<path d="M5 2408 c33 -397 116 -697 282 -1020 71 -139 209 -346 312 -470 l82
-98 91 46 c125 63 254 119 376 164 57 21 105 40 107 42 2 2 -5 33 -16 68 -35
112 -97 379 -123 530 -37 211 -54 366 -68 602 l-12 208 -518 0 -519 0 6 -72z"/>
<path d="M1204 2338 c19 -391 64 -690 157 -1048 22 -85 43 -158 48 -163 4 -4
59 6 122 22 257 67 536 109 832 126 l117 7 0 599 0 599 -641 0 -642 0 7 -142z"/>
<path d="M2640 1881 l0 -599 108 -6 c295 -18 564 -58 822 -122 74 -18 138 -30
142 -26 12 12 95 347 122 492 46 248 69 453 82 718 l7 142 -642 0 -641 0 0
-599z"/>
<path d="M4072 2272 c-14 -237 -31 -393 -68 -602 -26 -153 -89 -421 -123 -530
-11 -35 -19 -66 -17 -67 2 -2 54 -23 117 -47 142 -54 236 -95 361 -157 l97
-49 82 98 c221 263 408 615 498 934 50 181 73 313 96 561 l7 67 -519 0 -519 0
-12 -208z"/>
<path d="M2267 1109 c-132 -9 -316 -34 -457 -60 -101 -20 -341 -77 -348 -84
-13 -12 165 -393 241 -514 123 -198 297 -391 364 -403 70 -13 257 -37 336 -43
l77 -6 0 561 0 560 -52 -1 c-29 -1 -102 -5 -161 -10z"/>
<path d="M2640 561 l0 -561 83 6 c45 3 145 15 221 25 135 19 141 21 180 56
138 124 279 319 391 542 57 115 149 330 143 336 -8 8 -256 66 -378 89 -143 26
-354 51 -532 61 l-108 7 0 -561z"/>
<path d="M1275 908 c-153 -51 -468 -195 -462 -212 8 -23 208 -183 334 -266 73
-49 182 -113 243 -144 118 -61 330 -149 338 -142 2 3 -9 22 -25 43 -128 164
-290 458 -365 662 -11 31 -23 59 -27 62 -3 4 -19 2 -36 -3z"/>
<path d="M3799 892 c-6 -15 -17 -43 -24 -62 -66 -182 -236 -487 -358 -643 -16
-21 -27 -40 -25 -42 7 -8 198 70 308 125 129 65 259 145 375 230 105 78 235
187 235 199 0 16 -294 148 -448 202 l-53 18 -10 -27z"/>
</g>
</svg>
